<svg width="18" height="18" viewBox="0 0 18 18" xmlns="http://www.w3.org/2000/svg">
  <path d="M9 1.5C6.0975 1.5 3.75 3.8475 3.75 6.75C3.75 9.77511 6.84885 13.907 8.28497 15.6594C8.66046 16.1176 9.33954 16.1176 9.71503 15.6594C11.1511 13.907 14.25 9.77511 14.25 6.75C14.25 3.8475 11.9025 1.5 9 1.5ZM9 8.625C8.50272 8.625 8.0258 8.42746 7.67417 8.07582C7.32254 7.72419 7.125 7.24728 7.125 6.75C7.125 6.25272 7.32254 5.7758 7.67417 5.42417C8.0258 5.07254 8.50272 4.875 9 4.875C9.49728 4.875 9.97419 5.07254 10.3258 5.42417C10.6775 5.7758 10.875 6.25272 10.875 6.75C10.875 7.24728 10.6775 7.72419 10.3258 8.07582C9.97419 8.42746 9.49728 8.625 9 8.625Z" />
</svg>
