<svg xmlns="http://www.w3.org/2000/svg" width="151" height="28">
  <path d="m53.355 17.838-2.364 3.14H32.085l-.933-3.14h-.002l5.274-7.006 2.273 1.318-2.161-5.563L20.878 28l-3.125-11.708L9.08 28 3.507 7.124l2.965.35L0 0h7.238l3.853 14.434L9.427 18.8l5.963-8.148L22.796 0h6.444l-7.36 10.652 2.148 8.048.295-3.996L34.913 0h6.44l-4.729 6.466h24.641L58.899 9.61h-13.5l-1.914 2.542H55.42l-2.366 3.143H41.122l-1.046 1.389-5.157 1.155h18.436Zm73.491 0 5.157-1.155 7.683-10.217h-11.271l2.208 5.685-2.272-1.319-5.275 7.006H106.38l5.157-1.155 7.683-10.216H84.101L89.22 0H65.618l2.172 5.684-2.34-1.279-5.377 7.597 16.253-.16-4.002.63-4.138 5.364h-4.674l2.763-3.67-8.397.686-4.56 6.127h20.287l8.96-12.06-15.53.301 3.383-.645 4.018-5.43h4.767l-3.15 3.99 7.68-.637 2.195 5.654-2.272-1.318-5.274 7.005h.002l.933 3.14h18.906l2.364-3.14H82.152l5.157-1.154 1.045-1.39h11.932l2.366-3.143H90.717l1.915-2.54h13.499l2.006-2.665 2.021 5.205-2.272-1.318-5.274 7.006h.002l.933 3.14h17.623l2.037-2.706.806 2.706h17.623L144 17.84h-17.154v-.002Z"/>
</svg>
