<svg width="15" height="14" viewBox="0 0 15 14" xmlns="http://www.w3.org/2000/svg">
  <path d="M5.00898 0.672571C4.79844 0.163977 4.24336 -0.106726 3.71289 0.0381959L1.30664 0.694446C0.830859 0.825696 0.5 1.25773 0.5 1.74991C0.5 8.51476 5.98516 13.9999 12.75 13.9999C13.2422 13.9999 13.6742 13.6691 13.8055 13.1933L14.4617 10.787C14.6066 10.2566 14.3359 9.70148 13.8273 9.49093L11.2023 8.39718C10.7566 8.21124 10.2398 8.33976 9.93633 8.71437L8.83164 10.0624C6.90664 9.15187 5.34805 7.59327 4.4375 5.66827L5.78555 4.56632C6.16016 4.26007 6.28867 3.74601 6.10273 3.30031L5.00898 0.675305V0.672571Z" />
</svg>
