<svg width="29" height="28" viewBox="0 0 29 28" xmlns="http://www.w3.org/2000/svg">
  <path d="M14.752 1.5C11.5701 1.5 8.5157 2.76506 6.26758 5.01469C4.01715 7.26522 2.7526 10.3173 2.75195 13.5C2.75195 16.6813 4.01758 19.7357 6.26758 21.9853C8.5157 24.2349 11.5701 25.5 14.752 25.5C17.9338 25.5 20.9882 24.2349 23.2363 21.9853C25.4863 19.7357 26.752 16.6813 26.752 13.5C26.752 10.3187 25.4863 7.26431 23.2363 5.01469C20.9882 2.76506 17.9338 1.5 14.752 1.5Z" />
  <path d="M8.64551 13.2355C12.1358 11.6833 14.4627 10.6599 15.6261 10.1654C18.9519 8.75359 19.6421 8.50838 20.0929 8.50007C20.192 8.49845 20.4127 8.52347 20.5567 8.64235C20.6764 8.74261 20.7101 8.87819 20.7269 8.97339C20.7419 9.0685 20.7625 9.28525 20.7456 9.45445C20.5661 11.3871 19.7861 16.0769 19.3896 18.2416C19.2231 19.1575 18.892 19.4646 18.5722 19.4945C17.8763 19.5599 17.3489 19.0255 16.6755 18.575C15.6224 17.8698 15.0276 17.4309 14.0044 16.7429C12.8223 15.9476 13.5892 15.5105 14.2626 14.7963C14.4384 14.6093 17.5022 11.7648 17.5602 11.5068C17.5677 11.4745 17.5752 11.3542 17.5041 11.2908C17.4349 11.2272 17.332 11.249 17.2572 11.2662C17.1506 11.2906 15.469 12.4265 12.2069 14.6737C11.7299 15.0086 11.2978 15.1719 10.9088 15.1633C10.4823 15.154 9.65931 14.9166 9.04766 14.7138C8.29947 14.465 7.70278 14.3334 7.75516 13.9108C7.78134 13.6908 8.07875 13.4656 8.64551 13.2355Z" fill="#060709"/>
</svg>
