<svg xmlns="http://www.w3.org/2000/svg" width="21" height="20" fill="none">
  <g fill="#fff" clip-path="url(#a)">
    <path d="M7.97 10.577c-.274-.274-.695-.274-.947 0l-4.99 4.99c-.947.947-.947 2.484 0 3.451.948.948 2.484.948 3.452 0l4.989-4.989c.274-.273.274-.694 0-.947L7.97 10.577Zm-4.505 6.21a.369.369 0 0 1-.526 0 .369.369 0 0 1 0-.526l3.978-3.979a.369.369 0 0 1 .526 0 .369.369 0 0 1 0 .527l-3.978 3.978Zm5.326-2.673-4 4a.369.369 0 0 1-.526 0 .369.369 0 0 1 0-.527l3.978-3.978a.369.369 0 0 1 .527 0c.168.126.168.357.021.505Z"/>
    <path d="M9.19 5.862a4.291 4.291 0 0 0-.925-4.59A4.272 4.272 0 0 0 4.392.116c-.21.063-.274.274-.148.4L6.37 2.641a.94.94 0 0 1 0 1.347L5.002 5.356a.94.94 0 0 1-1.347 0L1.507 3.21a.23.23 0 0 0-.4.105 4.293 4.293 0 0 0 1.137 3.979 4.219 4.219 0 0 0 4.59.926l10.378 10.883c.758.8 2 .82 2.778.042.8-.78.8-2.042 0-2.82L9.19 5.861Zm9.242 12.694a1.033 1.033 0 0 1-1.03-1.031c0-.569.462-1.031 1.03-1.031.569 0 1.032.462 1.032 1.03-.021.569-.463 1.032-1.032 1.032Z"/>
    <path d="M20.895 1.02 19.97.094a.348.348 0 0 0-.42-.042L17 1.862a.468.468 0 0 0-.19.358v.568c0 .042-.02.063-.041.084l-.085.127c-.042.041-.063.083-.063.126l-.022.169c0 .042-.021.063-.042.084l-4.21 4.21a.204.204 0 0 0 0 .294l.737.737c.084.084.21.084.294 0l4.189-4.189a.16.16 0 0 1 .084-.042l.189-.021c.042 0 .084-.021.127-.063l.083-.084a.16.16 0 0 1 .084-.042l.779.021a.452.452 0 0 0 .38-.189l1.664-2.569a.356.356 0 0 0-.063-.42Z"/>
  </g>
  <defs>
    <clipPath id="a">
      <path fill="#fff" d="M.752 0h20v20h-20z"/>
    </clipPath>
  </defs>
</svg>
