<svg xmlns="http://www.w3.org/2000/svg" width="20" height="20" fill="none">
  <path fill="#fff" d="m17.348 7.542-.094-.036-.372-.906.04-.094c1.124-2.6 1.046-2.682.858-2.87l-1.5-1.496a.4.4 0 0 0-.262-.106c-.082 0-.34 0-2.558 1.026l-.09.04-.91-.372-.04-.094C11.378 0 11.272 0 11.012 0h-2.12c-.258 0-.374 0-1.342 2.64l-.036.098-.914.378-.086-.036c-1.5-.644-2.374-.972-2.6-.972a.4.4 0 0 0-.262.106l-1.504 1.5c-.2.2-.27.274.914 2.822l.042.094-.37.902-.09.036C0 8.6 0 8.71 0 8.984v2.12c0 .274 0 .386 2.646 1.354l.094.036.378.906-.04.094c-1.124 2.6-1.054 2.674-.862 2.87l1.5 1.496a.4.4 0 0 0 .266.106c.082 0 .34 0 2.558-1.022l.09-.042.914.378.036.094C8.618 20 8.728 20 8.984 20h2.12c.266 0 .374 0 1.342-2.64l.036-.098.918-.378.086.036c1.5.648 2.374.972 2.6.972a.386.386 0 0 0 .266-.106l1.504-1.504c.188-.2.27-.274-.918-2.818l-.042-.098.37-.902.09-.036C20 11.384 20 11.282 20 11V8.894c0-.274 0-.384-2.652-1.352ZM10 12.746A2.746 2.746 0 1 1 12.756 10 2.754 2.754 0 0 1 10 12.746Z"/>
</svg>
