<svg xmlns="http://www.w3.org/2000/svg" width="22" height="22">
  <path fill-rule="evenodd" d="M6.691 20.75c0 .414.336.75.75.75h7.5a.75.75 0 0 0 .75-.75c0-2.02-1.975-3.75-4.5-3.75-2.524 0-4.5 1.73-4.5 3.75ZM8.357 20c.413-.896 1.55-1.5 2.834-1.5s2.421.604 2.835 1.5H8.357Zm2.834-9.75a3.001 3.001 0 0 0 0 6 3.001 3.001 0 0 0 0-6Zm0 1.5a1.5 1.5 0 1 1 0 3.001 1.5 1.5 0 0 1 0-3.001ZM4.953 6.427a.75.75 0 0 0-1.317 0l-.764 1.401-1.569.294a.75.75 0 0 0-.407 1.253l1.097 1.16-.206 1.582a.75.75 0 0 0 1.066.774l1.441-.684 1.443.684a.75.75 0 0 0 1.065-.774l-.206-1.583 1.097-1.16a.75.75 0 0 0-.407-1.252l-1.569-.294-.764-1.4Zm13.794 0a.751.751 0 0 0-1.317 0l-.764 1.401-1.57.294a.752.752 0 0 0-.406 1.253l1.097 1.16-.206 1.582a.75.75 0 0 0 1.065.774l1.442-.684 1.442.684a.75.75 0 0 0 1.066-.774l-.206-1.583 1.097-1.16a.75.75 0 0 0-.408-1.252l-1.568-.294-.764-1.4ZM4.294 8.353l.276.507c.108.197.3.335.52.378l.568.105-.396.42a.748.748 0 0 0-.199.611l.074.572-.52-.247a.75.75 0 0 0-.644 0l-.52.247.073-.572a.753.753 0 0 0-.198-.612l-.397-.419.567-.105a.754.754 0 0 0 .52-.378l.276-.507Zm13.794 0 .276.507c.108.197.3.335.52.378l.568.105-.397.42a.753.753 0 0 0-.199.611l.075.572-.52-.247a.75.75 0 0 0-.644 0l-.522.247.075-.572a.748.748 0 0 0-.2-.612l-.395-.419.567-.105a.754.754 0 0 0 .52-.378l.276-.507ZM11.85.891a.75.75 0 0 0-1.317 0l-.998 1.83-2.048.383a.75.75 0 0 0-.407 1.252l1.432 1.515-.269 2.066a.75.75 0 0 0 1.066.774l1.882-.893 1.883.893a.75.75 0 0 0 1.066-.774l-.269-2.066 1.432-1.515a.751.751 0 0 0-.407-1.252l-2.049-.383L11.85.89Zm-.659 1.926.51.934a.748.748 0 0 0 .52.378l1.047.196-.731.774a.748.748 0 0 0-.199.612l.137 1.055-.962-.456a.75.75 0 0 0-.643 0l-.962.456.137-1.055a.748.748 0 0 0-.2-.612l-.73-.774 1.046-.196a.748.748 0 0 0 .52-.378l.51-.934Z" clip-rule="evenodd"/>
</svg>
