<svg xmlns="http://www.w3.org/2000/svg" width="21" height="20" fill="none">
  <g clip-path="url(#a)">
    <path fill="#fff" fill-rule="evenodd" d="M2.877 1.5H15.43c.586 0 1.117.237 1.503.618.386.382.624.908.624 1.487V5.28h1.188c.552 0 1.054.223 1.418.584.364.36.59.857.59 1.404v10.77a.47.47 0 0 1-.792.334l-2.245-2.134H7.095a2.013 2.013 0 0 1-1.419-.583 1.971 1.971 0 0 1-.59-1.405v-1.014H3.974l-2.428 2.309a.471.471 0 0 1-.661-.013.46.46 0 0 1-.131-.32L.752 3.605c0-.58.24-1.106.624-1.488a2.132 2.132 0 0 1 1.503-.617L2.877 1.5Zm14.679 4.707v4.92c0 .58-.24 1.107-.624 1.488a2.13 2.13 0 0 1-1.503.618H6.024v1.015a1.072 1.072 0 0 0 1.07 1.059h10.808c.138 0 .263.06.348.154l1.563 1.486V7.265a1.072 1.072 0 0 0-1.07-1.06h-1.188l.001.002Z" clip-rule="evenodd"/>
  </g>
  <defs>
    <clipPath id="a">
      <path fill="#fff" d="M.752 0h20v20h-20z"/>
    </clipPath>
  </defs>
</svg>
