<svg width="21" height="20" viewBox="0 0 21 20" fill="none" xmlns="http://www.w3.org/2000/svg">
<path d="M10.4185 0C8.44065 0 6.50725 0.58649 4.86276 1.6853C3.21827 2.78412 1.93654 4.3459 1.17967 6.17317C0.42279 8.00043 0.224757 10.0111 0.610609 11.9509C0.996461 13.8907 1.94887 15.6725 3.34739 17.0711C4.74592 18.4696 6.52775 19.422 8.46756 19.8079C10.4074 20.1937 12.418 19.9957 14.2453 19.2388C16.0726 18.4819 17.6343 17.2002 18.7332 15.5557C19.832 13.9112 20.4185 11.9778 20.4185 10C20.4185 8.68678 20.1598 7.38642 19.6573 6.17317C19.1547 4.95991 18.4181 3.85752 17.4895 2.92893C16.5609 2.00035 15.4586 1.26375 14.2453 0.761205C13.032 0.258658 11.7317 0 10.4185 0ZM16.0945 8.237L10.0945 13.737C9.9045 13.9112 9.65461 14.0053 9.39694 13.9997C9.13926 13.9941 8.89369 13.8893 8.71146 13.707L5.71146 10.707C5.61595 10.6148 5.53977 10.5044 5.48736 10.3824C5.43495 10.2604 5.40736 10.1292 5.40621 9.9964C5.40506 9.86362 5.43036 9.73194 5.48064 9.60905C5.53092 9.48615 5.60517 9.3745 5.69907 9.28061C5.79296 9.18671 5.90461 9.11246 6.02751 9.06218C6.1504 9.0119 6.28208 8.9866 6.41486 8.98775C6.54764 8.9889 6.67886 9.01649 6.80087 9.0689C6.92287 9.12131 7.03321 9.19749 7.12546 9.293L9.44846 11.616L14.7425 6.763C14.9379 6.58371 15.1966 6.48942 15.4616 6.50086C15.7266 6.5123 15.9762 6.62854 16.1555 6.824C16.3347 7.01946 16.429 7.27814 16.4176 7.54313C16.4062 7.80812 16.2899 8.05771 16.0945 8.237Z" fill="white"/>
</svg>
