<svg xmlns="http://www.w3.org/2000/svg" width="28" height="29">
  <path d="M13.5 11.005a3.498 3.498 0 0 0-3.495 3.495 3.508 3.508 0 0 0 3.494 3.495 3.508 3.508 0 0 0 3.495-3.495 3.508 3.508 0 0 0-3.495-3.495ZM24 14.5c0-1.455 0-2.88-.076-4.335-.075-1.68-.465-3.18-1.695-4.395-1.23-1.23-2.715-1.62-4.395-1.695C16.38 4 14.954 4 13.5 4c-1.454 0-2.88 0-4.334.075-1.68.075-3.18.465-4.395 1.695C3.54 7 3.15 8.485 3.075 10.165 3 11.62 3 13.045 3 14.5s0 2.88.075 4.335c.075 1.68.465 3.18 1.695 4.395 1.23 1.23 2.715 1.62 4.395 1.695C10.62 25 12.045 25 13.5 25c1.454 0 2.88 0 4.334-.075 1.68-.075 3.18-.465 4.395-1.695 1.23-1.23 1.62-2.715 1.695-4.395.09-1.44.075-2.88.075-4.335Zm-10.5 5.385A5.37 5.37 0 0 1 8.114 14.5a5.37 5.37 0 0 1 5.384-5.385 5.37 5.37 0 0 1 5.385 5.385 5.37 5.37 0 0 1-5.385 5.385Zm5.61-9.735c-.69 0-1.26-.555-1.26-1.26s.554-1.26 1.26-1.26c.704 0 1.26.555 1.26 1.26a1.2 1.2 0 0 1-.36.885 1.2 1.2 0 0 1-.886.36l-.015.015Z"/>
</svg>
