<svg xmlns="http://www.w3.org/2000/svg" width="89" height="16">
  <path d="m8.252 12.35-3.9 2.248a.602.602 0 0 1-.32.066.729.729 0 0 1-.285-.096.52.52 0 0 1-.21-.232.428.428 0 0 1-.013-.327l1.038-4.217L1.129 6.95a.528.528 0 0 1-.192-.27.414.414 0 0 1 .02-.3.667.667 0 0 1 .178-.236c.075-.06.175-.1.301-.121l4.53-.378 1.767-3.993a.484.484 0 0 1 .21-.244.634.634 0 0 1 .309-.075.64.64 0 0 1 .31.075c.092.05.161.131.209.244l1.766 3.993 4.53.378c.126.02.227.061.301.122a.64.64 0 0 1 .179.235c.043.096.05.196.019.3a.528.528 0 0 1-.191.27l-3.433 2.842 1.038 4.217a.417.417 0 0 1-.012.326.52.52 0 0 1-.212.232.691.691 0 0 1-.285.097.6.6 0 0 1-.318-.066L8.252 12.35ZM26.252 12.35l-3.9 2.248a.602.602 0 0 1-.32.066.729.729 0 0 1-.285-.096.52.52 0 0 1-.21-.232.428.428 0 0 1-.013-.327l1.038-4.217-3.433-2.842a.528.528 0 0 1-.192-.27.414.414 0 0 1 .02-.3.667.667 0 0 1 .178-.236c.075-.06.175-.1.301-.121l4.53-.378 1.767-3.993a.483.483 0 0 1 .21-.244.634.634 0 0 1 .309-.075.64.64 0 0 1 .31.075c.092.05.161.131.209.244l1.766 3.993 4.53.378c.126.02.227.061.301.122a.64.64 0 0 1 .179.235c.043.096.05.196.019.3a.528.528 0 0 1-.191.27l-3.433 2.842 1.038 4.217a.417.417 0 0 1-.012.326.52.52 0 0 1-.212.232.691.691 0 0 1-.285.097.6.6 0 0 1-.318-.066l-3.901-2.248ZM44.252 12.35l-3.9 2.248a.602.602 0 0 1-.32.066.729.729 0 0 1-.285-.096.52.52 0 0 1-.21-.232.428.428 0 0 1-.013-.327l1.038-4.217-3.433-2.842a.528.528 0 0 1-.192-.27.414.414 0 0 1 .02-.3.667.667 0 0 1 .178-.236c.075-.06.175-.1.301-.121l4.53-.378 1.767-3.993a.483.483 0 0 1 .21-.244.634.634 0 0 1 .309-.075.64.64 0 0 1 .31.075c.092.05.161.131.209.244l1.766 3.993 4.53.378c.126.02.227.061.301.122a.64.64 0 0 1 .179.235c.043.096.05.196.019.3a.528.528 0 0 1-.191.27l-3.433 2.842 1.038 4.217a.417.417 0 0 1-.012.326.52.52 0 0 1-.212.232.691.691 0 0 1-.285.097.6.6 0 0 1-.318-.066l-3.901-2.248ZM62.252 12.35l-3.9 2.248a.602.602 0 0 1-.32.066.729.729 0 0 1-.285-.096.52.52 0 0 1-.21-.232.428.428 0 0 1-.013-.327l1.038-4.217-3.433-2.842a.528.528 0 0 1-.192-.27.414.414 0 0 1 .02-.3.667.667 0 0 1 .178-.236c.075-.06.175-.1.301-.121l4.53-.378 1.767-3.993a.483.483 0 0 1 .21-.244.634.634 0 0 1 .309-.075.64.64 0 0 1 .31.075c.092.05.161.131.209.244l1.766 3.993 4.53.378c.126.02.227.061.301.122a.64.64 0 0 1 .179.235c.043.096.05.196.019.3a.528.528 0 0 1-.191.27l-3.433 2.842 1.038 4.217a.417.417 0 0 1-.012.326.52.52 0 0 1-.212.232.691.691 0 0 1-.285.097.6.6 0 0 1-.318-.066l-3.901-2.248ZM80.252 12.35l-3.9 2.248a.602.602 0 0 1-.32.066.729.729 0 0 1-.285-.096.52.52 0 0 1-.21-.232.428.428 0 0 1-.013-.327l1.038-4.217-3.433-2.842a.528.528 0 0 1-.192-.27.414.414 0 0 1 .02-.3.667.667 0 0 1 .178-.236c.075-.06.175-.1.301-.121l4.53-.378 1.767-3.993a.483.483 0 0 1 .21-.244.634.634 0 0 1 .309-.075.64.64 0 0 1 .31.075c.092.05.161.131.209.244l1.766 3.993 4.53.378c.126.02.227.061.301.122a.64.64 0 0 1 .179.235c.043.096.05.196.019.3a.528.528 0 0 1-.191.27l-3.433 2.842 1.038 4.217a.417.417 0 0 1-.012.326.52.52 0 0 1-.212.232.691.691 0 0 1-.285.097.6.6 0 0 1-.318-.066l-3.901-2.248Z"/>
</svg>
