<svg xmlns="http://www.w3.org/2000/svg" width="75" height="28" fill="none" viewBox="0 0 75 28">
  <path fill="#FFED00" fill-rule="evenodd" d="M36.624 6.466 41.353 0h-6.44l-10.59 14.704-.295 3.996-2.148-8.048L29.24 0h-6.444L15.39 10.652 9.427 18.8l1.664-4.366L7.238 0H0l6.472 7.473-2.965-.349L9.08 28l8.673-11.708L20.878 28 36.536 6.587l.088-.12Z" clip-rule="evenodd"/><path fill="#FFED00" d="m75 0-6.845 8.631-.493.042-10.266.85 4.211-5.327h-6.373l-5.371 7.25-4.523.86 20.76-.403L54.124 28H27l6.098-8.178 11.226-.915-3.694 4.898h6.248l5.532-7.16 5.35-.84-21.728.214 7.188-10.14 3.128 1.708L43.446 0H75Z"/>
</svg>
