<svg xmlns="http://www.w3.org/2000/svg" version="1.1" xmlns:xlink="http://www.w3.org/1999/xlink" width="75" height="28"><svg width="75" height="28" viewBox="0 0 75 28" fill="none" xmlns="http://www.w3.org/2000/svg">
<path fill-rule="evenodd" clip-rule="evenodd" d="M36.6244 6.46645L41.3529 0H34.9121L24.3232 14.7038L24.0282 18.7001L21.8797 10.6516L29.2401 0H22.7961L15.39 10.6521L9.42726 18.7997L11.0913 14.4338L7.23839 0H0L6.47215 7.47317L3.50697 7.12406L9.08022 28L17.7529 16.2916L20.8784 28L36.5358 6.58721L36.6244 6.46645Z" fill="#FFED00"></path>
<path d="M75 0L68.1549 8.63114L67.6619 8.67266L57.396 9.5229L61.6071 4.19627H55.2345L49.8628 11.4451L45.3396 12.3059L66.1005 11.9033L54.1235 28H27L33.0981 19.8221L44.3238 18.9071L40.6299 23.8051H46.8783L52.4103 16.645L57.7607 15.8053L36.0315 16.0186L43.2199 5.87914L46.3484 7.58665L43.4455 0H75Z" fill="#FFED00"></path>
</svg><style>@media (prefers-color-scheme: light) { :root { filter: contrast(1) brightness(0.9); } }
@media (prefers-color-scheme: dark) { :root { filter: none; } }
</style></svg>