<svg xmlns="http://www.w3.org/2000/svg" width="22" height="19">
  <path fill-rule="evenodd" d="M21.563 9a5.25 5.25 0 1 0-9 3.67V18a.75.75 0 0 0 1.085.671l2.665-1.333 2.664 1.333A.75.75 0 0 0 20.062 18v-5.33a5.233 5.233 0 0 0 1.5-3.67Zm-5.25-3.75a3.75 3.75 0 1 1 0 7.5 3.75 3.75 0 0 1 0-7.5Zm.335 10.579a.75.75 0 0 0-.671 0l-1.915.958v-3.044a5.244 5.244 0 0 0 4.5 0v3.044l-1.914-.958ZM11.063 15a.75.75 0 0 1-.75.75h-8.25a1.5 1.5 0 0 1-1.5-1.5v-12a1.5 1.5 0 0 1 1.5-1.5h16.5a1.5 1.5 0 0 1 1.5 1.5.75.75 0 0 1-1.5 0h-16.5v12h8.25a.75.75 0 0 1 .75.75Zm-1.5-5.25a.75.75 0 0 1-.75.75h-3.75a.75.75 0 0 1 0-1.5h3.75a.75.75 0 0 1 .75.75Zm0-3a.75.75 0 0 1-.75.75h-3.75a.75.75 0 0 1 0-1.5h3.75a.75.75 0 0 1 .75.75Z" clip-rule="evenodd"/>
</svg>
