<svg xmlns="http://www.w3.org/2000/svg" width="25" height="24">
  <path d="M13.08 7.979a2.304 2.304 0 1 1 3.259 3.258 2.304 2.304 0 0 1-3.26-3.258Zm2.198 1.06a.806.806 0 1 0-1.139 1.14.806.806 0 0 0 1.14-1.14Z"/>
  <path d="M20.935 4.043a.75.75 0 0 0-.66-.66A12.66 12.66 0 0 0 9.863 7.015a12.7 12.7 0 0 0-1.735 2.159 6.73 6.73 0 0 0-4.505 1.972 6.799 6.799 0 0 0-1.226 1.676.75.75 0 0 0 .812 1.08 6.14 6.14 0 0 1 3.552.35l3.302 3.3a6.14 6.14 0 0 1 .35 3.554.75.75 0 0 0 1.08.813 6.803 6.803 0 0 0 1.676-1.227 6.73 6.73 0 0 0 1.972-4.503 12.705 12.705 0 0 0 2.161-1.737 12.66 12.66 0 0 0 3.633-10.409Zm-7.414 13.018a5.2 5.2 0 0 1-1.493 2.649 7.701 7.701 0 0 0-.318-1.999c.62-.17 1.224-.388 1.81-.65m-6.916-4.456a7.697 7.697 0 0 0-2-.32l.08-.079a5.229 5.229 0 0 1 2.57-1.413c-.264.59-.48 1.195-.65 1.812Zm4.32-4.53a11.15 11.15 0 0 1 8.572-3.254 11.152 11.152 0 0 1-3.255 8.57 11.13 11.13 0 0 1-5.26 2.96l-3.017-3.017a11.1 11.1 0 0 1 2.96-5.258"/>
  <path d="M3.343 20.25a.75.75 0 0 0 .722.723h.032a10.827 10.827 0 0 0 1.202-.041c.326-.03.696-.083 1.04-.177.32-.088.721-.24 1.013-.532a2.305 2.305 0 1 0-3.26-3.26c-.292.292-.443.693-.53 1.014a6 6 0 0 0-.179 1.04c-.035.4-.048.8-.04 1.202v.031Zm1.81-2.226a.805.805 0 0 1 1.14 1.138.4.4 0 0 1-.088.052c-.085.04-.174.071-.265.095a4.998 4.998 0 0 1-.78.13c-.105.01-.207.018-.306.023.006-.099.013-.2.023-.306.026-.28.068-.555.13-.78.031-.113.062-.201.094-.265a.4.4 0 0 1 .052-.087Z"/>
</svg>
