<svg xmlns="http://www.w3.org/2000/svg" width="20" height="20">
  <path fill-rule="evenodd" d="M9.898 5.5a4.5 4.5 0 1 0 0 9 4.5 4.5 0 0 0 0-9Zm0 7.5a3 3 0 1 1 0-6 3 3 0 0 1 0 6Zm8.25-2.797c.004-.135.004-.27 0-.405l1.399-1.748a.75.75 0 0 0 .138-.662 10.05 10.05 0 0 0-1.02-2.46.75.75 0 0 0-.562-.37l-2.224-.247a7.46 7.46 0 0 0-.281-.281l-.263-2.23a.75.75 0 0 0-.369-.562c-.772-.447-1.6-.79-2.46-1.019a.75.75 0 0 0-.663.14L10.1 1.75h-.405L7.948.354a.75.75 0 0 0-.662-.139c-.862.23-1.69.573-2.46 1.02a.75.75 0 0 0-.37.563L4.21 4.025a8.533 8.533 0 0 0-.281.282l-2.23.255a.75.75 0 0 0-.562.37c-.447.772-.79 1.6-1.019 2.46a.75.75 0 0 0 .14.663l1.391 1.742v.405L.252 11.95a.75.75 0 0 0-.139.662c.23.862.573 1.69 1.02 2.46a.75.75 0 0 0 .563.37l2.224.247c.093.097.186.191.28.281l.26 2.23a.75.75 0 0 0 .37.562c.772.447 1.599.79 2.46 1.019a.75.75 0 0 0 .663-.14l1.742-1.391c.135.004.27.004.405 0l1.748 1.399a.75.75 0 0 0 .662.139 10.05 10.05 0 0 0 2.46-1.02.75.75 0 0 0 .37-.563l.247-2.224c.097-.092.19-.186.28-.281l2.23-.262a.75.75 0 0 0 .563-.37c.447-.772.79-1.6 1.019-2.46a.75.75 0 0 0-.14-.663l-1.391-1.742Zm-1.51-.61c.016.271.016.543 0 .814a.75.75 0 0 0 .164.514l1.33 1.662a8.581 8.581 0 0 1-.584 1.406l-2.119.24a.75.75 0 0 0-.478.248c-.18.203-.373.395-.575.575a.75.75 0 0 0-.248.478l-.235 2.117a8.56 8.56 0 0 1-1.407.584l-1.663-1.33a.75.75 0 0 0-.469-.164h-.044a6.947 6.947 0 0 1-.814 0 .75.75 0 0 0-.514.163l-1.667 1.331a8.594 8.594 0 0 1-1.406-.584l-.24-2.116a.75.75 0 0 0-.248-.478 6.932 6.932 0 0 1-.575-.576.75.75 0 0 0-.478-.247l-2.117-.236a8.557 8.557 0 0 1-.584-1.406l1.33-1.664a.75.75 0 0 0 .163-.513 6.93 6.93 0 0 1 0-.814.75.75 0 0 0-.163-.514l-1.33-1.666c.152-.485.348-.956.584-1.406l2.116-.24a.75.75 0 0 0 .478-.248c.18-.203.372-.395.575-.575a.75.75 0 0 0 .249-.48l.235-2.115a8.56 8.56 0 0 1 1.406-.584l1.664 1.33a.75.75 0 0 0 .513.163 6.93 6.93 0 0 1 .814 0 .75.75 0 0 0 .514-.163l1.666-1.33c.485.152.956.348 1.406.584l.24 2.116a.75.75 0 0 0 .247.478c.204.18.396.373.576.575a.75.75 0 0 0 .478.248l2.117.235c.236.45.432.921.584 1.407L16.8 9.075a.75.75 0 0 0-.163.518h.003Z" clip-rule="evenodd"/>
</svg>
