<svg xmlns="http://www.w3.org/2000/svg" width="21" height="20" fill="none">
  <g clip-path="url(#a)">
    <path fill="#fff" fill-rule="evenodd" d="M4.304 4.154c.319-.386.956-.579 1.433-.643a30.511 30.511 0 0 1 9.364 0c.445.064 1.114.257 1.4.643.351 1.156.67 2.312.988 3.5a.884.884 0 0 1 .573-.193h1.37c.573 0 .987.45.987.996 0 .514-.446.963-.987.963h-.637c.19.418.35.996.35 1.863.032 1.67.032 3.34.032 5.01a.539.539 0 0 1-.541.546H16.15a.539.539 0 0 1-.541-.546v-.674H5.228v.674c0 .321-.255.546-.573.546H2.202c-.318 0-.573-.225-.573-.546 0-1.67.032-3.34.032-5.01 0-.867.16-1.445.35-1.863h-.637c-.51 0-.955-.45-.955-.963 0-.546.414-.996.955-.996h1.402a.86.86 0 0 1 .541.193c.319-1.188.637-2.344.987-3.5Zm3.854 8.767h4.522c.287 0 .51.225.51.514a.505.505 0 0 1-.51.514H8.158a.505.505 0 0 1-.51-.514c0-.29.223-.514.51-.514Zm-2.93-8.318c-.255.964-.51 1.96-.796 2.955a57.094 57.094 0 0 1 11.942 0c-.254-.996-.541-1.991-.796-2.955a29.49 29.49 0 0 0-10.35 0Zm10.955 5.428c-.605 0-1.114.481-1.114 1.091s.51 1.125 1.114 1.125c.605 0 1.083-.514 1.083-1.124 0-.61-.478-1.092-1.083-1.092Zm-11.528 0c.605 0 1.082.481 1.082 1.091s-.477 1.125-1.082 1.125c-.605 0-1.083-.514-1.083-1.124 0-.61.478-1.092 1.083-1.092Z" clip-rule="evenodd"/>
  </g>
  <defs>
    <clipPath id="a">
      <path fill="#fff" d="M.419 0h20v20h-20z"/>
    </clipPath>
  </defs>
</svg>
