<svg width="22" height="16" viewBox="0 0 22 16" xmlns="http://www.w3.org/2000/svg">
  <path d="M0.332031 14.6667C0.332031 15.403 0.928985 16 1.66536 16H20.332C21.0684 16 21.6654 15.403 21.6654 14.6667V14.6667C21.6654 13.9303 21.0684 13.3333 20.332 13.3333H1.66537C0.928988 13.3333 0.332031 13.9303 0.332031 14.6667V14.6667ZM0.332031 8C0.332031 8.73638 0.928985 9.33333 1.66536 9.33333H20.332C21.0684 9.33333 21.6654 8.73638 21.6654 8V8C21.6654 7.26362 21.0684 6.66667 20.332 6.66667H1.66537C0.928988 6.66667 0.332031 7.26362 0.332031 8V8ZM1.66537 0C0.928988 0 0.332031 0.596954 0.332031 1.33333V1.33333C0.332031 2.06971 0.928985 2.66667 1.66536 2.66667H20.332C21.0684 2.66667 21.6654 2.06971 21.6654 1.33333V1.33333C21.6654 0.596954 21.0684 0 20.332 0H1.66537Z" />
</svg>
