<svg xmlns="http://www.w3.org/2000/svg" width="21" height="20">
  <path d="M20.575 2.287c-.357-.08-.738-.156-1.133-.23a.63.63 0 0 1-.5-.5 30 30 0 0 0-.23-1.132c-.096-.441-.79-.561-1.172-.261a26 26 0 0 0-2.558 2.439.72.72 0 0 0-.154.598c.094.56.177 1.122.257 1.665l-4.609 4.607a.742.742 0 0 0 1.05 1.05l4.607-4.608c.543.078 1.105.162 1.665.257a.72.72 0 0 0 .598-.154 26 26 0 0 0 2.439-2.558c.3-.382.18-1.077-.26-1.173"/>
  <path d="M18.868 6.539a1.36 1.36 0 0 1-.787.34 7.721 7.721 0 1 1-3.962-3.961c.026-.292.145-.568.34-.788.299-.33.657-.699 1.033-1.066A9.96 9.96 0 0 0 11 0C5.477 0 1 4.477 1 10s4.477 10 10 10 10-4.477 10-10a9.96 9.96 0 0 0-1.066-4.495 25 25 0 0 1-1.066 1.034"/>
  <path d="M14.007 9.032a3.164 3.164 0 1 1-2.046-2.042l1.712-1.712a5.426 5.426 0 1 0 2.045 2.043z"/>
</svg>
