<svg xmlns="http://www.w3.org/2000/svg" width="20" height="20">
  <path d="M6.055 12.58c.45-.282.973-.428 1.504-.418a2.7 2.7 0 0 1 1.495.419 1.67 1.67 0 0 0 1.777 0 2.91 2.91 0 0 1 3.005 0c.26.174.567.264.88.256l-2.54-2.83a2.934 2.934 0 0 0-4.35 0L5.292 12.83c.272-.013.535-.1.762-.248M19.818 18.523l-4.127-4.599a2.92 2.92 0 0 1-2.469-.255 1.67 1.67 0 0 0-1.777 0c-.45.284-.972.429-1.503.418a2.7 2.7 0 0 1-1.504-.419 1.5 1.5 0 0 0-.88-.255 1.5 1.5 0 0 0-.888.256c-.45.283-.972.429-1.503.418-.3.004-.598-.041-.883-.134l-4.1 4.57a.712.712 0 0 0 .544 1.185h18.546a.712.712 0 0 0 .544-1.185"/>
  <path d="M10 10a.625.625 0 0 1-.625-.625V.625a.625.625 0 0 1 1.25 0v8.75A.625.625 0 0 1 10 10"/>
  <path d="M16.25 0H10a.625.625 0 0 0-.625.625v3.75c0 .345.28.625.625.625h6.25c.345 0 .625-.28.625-.625V.625A.625.625 0 0 0 16.25 0"/>
</svg>
